<svg width="346" height="52" viewBox="0 0 346 52" fill="none" xmlns="http://www.w3.org/2000/svg">
<path d="M51.6473 35.6322C53.3643 35.6451 54.4746 37.4848 53.6484 38.9953C53.629 39.0276 53.6225 39.0469 53.6096 39.0598C47.6516 47.8065 39.8861 51.5763 29.1061 51.9507H27.8215C11.6837 51.7247 0 41.0932 0 25.9366C0 10.78 12.0646 0 28.4993 0C39.2148 0 48.2454 4.8736 53.3062 12.7876C54.2745 14.3045 53.1965 16.3056 51.3955 16.3185L47.7936 16.3508C47.0383 16.3572 46.3218 15.9957 45.9022 15.3696C42.3584 10.0829 36.0324 6.93278 28.4993 6.93278C16.4347 6.93278 7.99142 14.7757 7.99142 25.9366C7.99142 29.7064 8.89513 32.8758 10.4831 35.7355H10.5606C13.8785 41.2417 20.2109 44.708 27.6795 45.0114H28.964C35.4256 44.7984 42.3584 42.1776 45.9152 36.6392C46.3347 35.9807 47.0706 35.587 47.8517 35.5934L51.6602 35.6257L51.6473 35.6322Z" fill="#093140"/>
<path d="M134.892 51.1244C132.762 51.1244 131.039 49.4009 131.039 47.2707V4.83487C131.039 2.70468 132.762 0.981171 134.892 0.981171H155.697C166.251 0.981171 172.661 6.55838 172.661 14.6273C172.661 22.6961 166.251 28.4283 155.697 28.4283H142.645C140.521 28.4283 138.798 30.1453 138.791 32.2691L138.74 47.2836C138.733 49.4074 137.01 51.1244 134.886 51.1244H134.892ZM155.697 21.5665C161.5 21.5665 164.67 18.7779 164.67 14.5563C164.67 10.3346 161.5 7.77194 155.697 7.77194H142.658C140.528 7.77194 138.804 9.49545 138.804 11.6256V17.7193C138.804 19.8494 140.528 21.5729 142.658 21.5729H155.697V21.5665Z" fill="#093140"/>
<path d="M207.338 11.1996V47.6193C207.338 49.5171 205.802 51.047 203.91 51.047H202.929C201.031 51.047 199.501 49.5106 199.501 47.6193V11.1996C199.501 9.30181 197.965 7.77195 196.074 7.77195H184.538C182.641 7.77195 181.111 6.23563 181.111 4.34429C181.111 2.44649 182.647 0.916626 184.538 0.916626H222.391C224.289 0.916626 225.819 2.45294 225.819 4.34429C225.819 6.24209 224.283 7.77195 222.391 7.77195H210.778C208.881 7.77195 207.351 9.30826 207.351 11.1996H207.338Z" fill="#093140"/>
<path d="M230.486 25.9366C230.486 10.6316 242.55 0 258.985 0C275.42 0 287.484 10.6316 287.484 25.9366C287.484 41.2417 275.42 51.9507 258.985 51.9507C242.55 51.9507 230.486 41.3191 230.486 25.9366V25.9366ZM279.499 25.9366C279.499 14.7047 271.127 6.93278 258.992 6.93278C246.856 6.93278 238.484 14.7757 238.484 25.9366C238.484 37.0975 246.927 45.0114 258.992 45.0114C271.056 45.0114 279.499 37.1685 279.499 25.9366V25.9366Z" fill="#093140"/>
<path d="M342.114 51.047H341.075C339.893 51.047 338.783 50.5112 338.041 49.5881L316.416 22.58C314.125 19.7139 309.503 21.3406 309.503 25.0071V47.161C309.503 49.3041 307.766 51.047 305.617 51.047C303.474 51.047 301.731 49.3105 301.731 47.161V4.78969C301.731 2.64659 303.467 0.903717 305.617 0.903717H306.727C307.908 0.903717 309.025 1.43949 309.761 2.36257L331.315 29.2868C333.606 32.1529 338.228 30.5326 338.228 26.8597V4.78969C338.228 2.64659 339.964 0.903717 342.114 0.903717C344.257 0.903717 346 2.64014 346 4.78969V47.161C346 49.3041 344.264 51.047 342.114 51.047Z" fill="#093140"/>
<path d="M88.4607 3.16299C81.9863 17.2158 75.5053 31.2685 69.0309 45.3148C67.5139 48.6005 71.0642 51.9248 74.2466 50.1884C79.5398 47.303 84.833 44.4111 90.1326 41.5257C91.2106 40.9383 92.5145 40.9124 93.6119 41.4611L111.744 50.5241C114.985 52.1443 118.419 48.6908 116.779 45.4633C112.7 37.4267 106.761 25.7365 95.2321 3.03389C93.812 0.232375 89.7776 0.303382 88.4672 3.15654L88.4607 3.16299Z" fill="#3885A7"/>
</svg>
