<svg width="204" height="31" viewBox="0 0 204 31" fill="none" xmlns="http://www.w3.org/2000/svg">
<g clip-path="url(#clip0_3_111)">
<path d="M30.4486 21.2631C31.4599 21.272 32.1157 22.3709 31.631 23.2678C31.6222 23.2855 31.6134 23.2988 31.609 23.3055C28.0972 28.5247 23.517 30.7736 17.1601 31H16.4034C6.88994 30.8646 0 24.5221 0 15.4778C0 6.43354 7.11368 0 16.8048 0C23.1222 0 28.4481 2.90819 31.4314 7.63012C32.0039 8.53588 31.3677 9.72801 30.3039 9.73689L28.1827 9.75465C27.7374 9.75909 27.3141 9.54376 27.0662 9.1708C24.9779 6.01618 21.2467 4.13807 16.8048 4.13807C9.6911 4.13807 4.71174 8.81782 4.71174 15.4756C4.71174 17.7244 5.24477 19.6159 6.17923 21.3253H6.2231C8.17974 24.6109 11.9132 26.6799 16.3156 26.8597H17.0724C20.8826 26.7332 24.9714 25.1681 27.0662 21.8647C27.3141 21.4718 27.7462 21.2387 28.2068 21.2409L30.4508 21.2609L30.4486 21.2631Z" fill="white"/>
<path d="M79.5316 30.5048C78.2768 30.5048 77.2612 29.4747 77.2612 28.2071V2.88363C77.2612 1.61379 78.279 0.585938 79.5316 0.585938H91.7979C98.021 0.585938 101.8 3.91593 101.8 8.72888C101.8 13.5418 98.021 16.9628 91.7979 16.9628H84.1029C82.8504 16.9628 81.8348 17.9863 81.8326 19.2539L81.8041 28.2138C81.7997 29.4814 80.7841 30.5048 79.5337 30.5048H79.5316ZM91.7979 12.8669C95.222 12.8669 97.0887 11.202 97.0887 8.68226C97.0887 6.16256 95.222 4.63299 91.7979 4.63299H84.1117C82.857 4.63299 81.8414 5.66306 81.8414 6.93068V10.567C81.8414 11.8369 82.8592 12.8647 84.1117 12.8647H91.7979V12.8669Z" fill="white"/>
<path d="M122.248 6.68152V28.413C122.248 29.543 121.343 30.4599 120.226 30.4599H119.647C118.53 30.4599 117.624 29.543 117.624 28.413V6.68152C117.624 5.55154 116.719 4.63468 115.602 4.63468H108.8C107.683 4.63468 106.777 3.71783 106.777 2.58785C106.777 1.45787 107.683 0.541016 108.8 0.541016H131.117C132.233 0.541016 133.139 1.45787 133.139 2.58785C133.139 3.71783 132.233 4.63468 131.117 4.63468H124.271C123.154 4.63468 122.248 5.55154 122.248 6.68152Z" fill="white"/>
<path d="M135.895 15.4778C135.895 6.34474 143.008 0 152.699 0C162.39 0 169.504 6.34474 169.504 15.4778C169.504 24.6109 162.39 31 152.699 31C143.008 31 135.895 24.6553 135.895 15.4778ZM164.792 15.4778C164.792 8.77342 159.857 4.14029 152.699 4.14029C145.542 4.14029 140.606 8.82004 140.606 15.4778C140.606 22.1356 145.586 26.8619 152.699 26.8619C159.813 26.8619 164.792 22.1822 164.792 15.4778Z" fill="white"/>
<path d="M201.71 30.4602H201.098C200.403 30.4602 199.745 30.1405 199.31 29.5921L186.559 13.4772C185.206 11.7678 182.481 12.7357 182.481 14.9246V28.1425C182.481 29.4212 181.457 30.4602 180.191 30.4602C178.928 30.4602 177.901 29.4234 177.901 28.1425V2.85674C177.901 1.57802 178.926 0.539062 180.191 0.539062H180.847C181.543 0.539062 182.201 0.858742 182.635 1.4093L195.342 17.4776C196.693 19.187 199.42 18.2191 199.42 16.0302V2.85674C199.42 1.57802 200.444 0.539062 201.71 0.539062C202.974 0.539062 204 1.5758 204 2.85674V28.1425C204 29.4212 202.976 30.4602 201.71 30.4602Z" fill="white"/>
<path d="M52.1562 1.88974C48.3372 10.2747 44.5183 18.6596 40.6993 27.0423C39.8065 29.0047 41.8992 30.985 43.7747 29.9505C46.8961 28.2277 50.0175 26.505 53.1389 24.7801C53.775 24.4293 54.5428 24.4138 55.1921 24.7424L65.8834 30.1525C67.794 31.1204 69.8186 29.0602 68.8513 27.1311C66.445 22.3359 62.9441 15.3607 56.1485 1.81204C55.3105 0.140385 52.9349 0.184785 52.1584 1.88752L52.1562 1.88974Z" fill="white"/>
</g>
<defs>
<clipPath id="clip0_3_111">
<rect width="204" height="31" fill="white"/>
</clipPath>
</defs>
</svg>
