<svg width="45" height="40" viewBox="0 0 45 40" fill="none" xmlns="http://www.w3.org/2000/svg">
<path fill-rule="evenodd" clip-rule="evenodd" d="M0.5 2.02087C0.5 1.08168 1.26136 0.320312 2.20056 0.320312H43.0139C43.9531 0.320312 44.7145 1.08168 44.7145 2.02087C44.7145 2.96006 43.9531 3.72142 43.0139 3.72142H42.447V29.2298C42.447 30.2821 42.029 31.2914 41.2849 32.0355C40.5407 32.7797 39.5314 33.1977 38.4791 33.1977H29.7733L33.0048 37.2371C33.5915 37.9704 33.4726 39.0406 32.7392 39.6273C32.0058 40.214 30.9357 40.0951 30.3489 39.3617L25.4177 33.1977H19.7967L14.8655 39.3617C14.2788 40.0951 13.2087 40.214 12.4753 39.6273C11.7419 39.0406 11.623 37.9704 12.2097 37.2371L15.4412 33.1977H6.73537C5.683 33.1977 4.67374 32.7797 3.9296 32.0355C3.18546 31.2914 2.76741 30.2821 2.76741 29.2298V3.72142H2.20056C1.26136 3.72142 0.5 2.96006 0.5 2.02087ZM6.16852 3.72142V29.2298C6.16852 29.3801 6.22824 29.5243 6.33455 29.6306C6.44085 29.7369 6.58503 29.7966 6.73537 29.7966H18.9658C18.9756 29.7965 18.9853 29.7965 18.9951 29.7966H26.2194C26.2291 29.7965 26.2389 29.7965 26.2486 29.7966H38.4791C38.6294 29.7966 38.7736 29.7369 38.8799 29.6306C38.9862 29.5243 39.0459 29.3801 39.0459 29.2298V3.72142H6.16852Z" fill="#093140"/>
<path fill-rule="evenodd" clip-rule="evenodd" d="M26.9658 9.39949C27.5939 9.33409 28.2066 9.62215 28.5569 10.1476L33.0917 16.9498C33.6126 17.7313 33.4015 18.7871 32.62 19.3081C31.8386 19.829 30.7828 19.6179 30.2618 18.8364L27.5202 14.7241L24.186 23.0595C23.9373 23.6813 23.3469 24.0992 22.6778 24.127C22.0087 24.1549 21.3856 23.7874 21.0861 23.1884L17.6064 16.2291L14.7399 19.0956C14.0758 19.7597 12.9991 19.7597 12.335 19.0956C11.6709 18.4315 11.6709 17.3548 12.335 16.6906L16.8698 12.1558C17.2563 11.7693 17.8051 11.5922 18.3447 11.6797C18.8843 11.7673 19.3488 12.1089 19.5933 12.5978L22.4346 18.2803L25.563 10.4593C25.7975 9.87298 26.3377 9.46489 26.9658 9.39949Z" fill="#093140"/>
</svg>
