<svg width="45" height="40" viewBox="0 0 45 40" fill="none" xmlns="http://www.w3.org/2000/svg">
<path fill-rule="evenodd" clip-rule="evenodd" d="M0 1.70056C0 0.761365 0.761365 0 1.70056 0H42.5139C43.4531 0 44.2144 0.761365 44.2144 1.70056C44.2144 2.63975 43.4531 3.40111 42.5139 3.40111H41.947V28.9094C41.947 29.9618 41.529 30.9711 40.7849 31.7152C40.0407 32.4594 39.0314 32.8774 37.9791 32.8774H29.2733L32.5048 36.9167C33.0915 37.6501 32.9726 38.7203 32.2392 39.307C31.5058 39.8937 30.4357 39.7748 29.8489 39.0414L24.9178 32.8774H19.2967L14.3655 39.0414C13.7788 39.7748 12.7087 39.8937 11.9753 39.307C11.2419 38.7203 11.123 37.6501 11.7097 36.9167L14.9412 32.8774H6.23537C5.183 32.8774 4.17374 32.4594 3.4296 31.7152C2.68546 30.9711 2.26741 29.9618 2.26741 28.9094V3.40111H1.70056C0.761365 3.40111 0 2.63975 0 1.70056ZM5.66852 3.40111V28.9094C5.66852 29.0598 5.72824 29.204 5.83455 29.3103C5.94085 29.4166 6.08503 29.4763 6.23537 29.4763H18.4658C18.4756 29.4762 18.4853 29.4762 18.4951 29.4763H25.7194C25.7291 29.4762 25.7389 29.4762 25.7486 29.4763H37.9791C38.1294 29.4763 38.2736 29.4166 38.3799 29.3103C38.4862 29.204 38.5459 29.0598 38.5459 28.9094V3.40111H5.66852Z" fill="#093140"/>
<path fill-rule="evenodd" clip-rule="evenodd" d="M26.4658 9.07918C27.0939 9.01378 27.7066 9.30184 28.0569 9.82729L32.5917 16.6295C33.1126 17.411 32.9015 18.4668 32.12 18.9878C31.3386 19.5087 30.2828 19.2976 29.7618 18.5161L27.0202 14.4037L23.686 22.7392C23.4373 23.361 22.8469 23.7789 22.1778 23.8067C21.5087 23.8345 20.8856 23.4671 20.5861 22.8681L17.1064 15.9088L14.2399 18.7753C13.5758 19.4394 12.4991 19.4394 11.835 18.7753C11.1709 18.1112 11.1709 17.0344 11.835 16.3703L16.3698 11.8355C16.7563 11.449 17.3051 11.2718 17.8447 11.3594C18.3843 11.447 18.8488 11.7886 19.0933 12.2775L21.9346 17.96L25.063 10.139C25.2975 9.55267 25.8377 9.14458 26.4658 9.07918Z" fill="#093140"/>
</svg>
