<svg width="21" height="11" viewBox="0 0 21 11" fill="none" xmlns="http://www.w3.org/2000/svg">
<path d="M10.5073 7.68585C12.4793 6.09031 14.4315 4.51459 16.3836 2.93391C17.3399 2.16092 18.2912 1.38792 19.2524 0.624836C19.8024 0.188787 20.4019 0.223473 20.7735 0.694207C21.1402 1.15503 21.0411 1.76451 20.506 2.20056C17.434 4.69297 14.3522 7.18539 11.2753 9.67285C10.7253 10.1188 10.2943 10.1188 9.72944 9.66294C6.6476 7.18043 3.57071 4.68802 0.49383 2.19561C-0.036325 1.76451 -0.130464 1.14512 0.24114 0.689255C0.617699 0.228431 1.22218 0.188788 1.76719 0.629792C4.52698 2.85463 7.27685 5.08443 10.0317 7.31422C10.1853 7.4381 10.3389 7.55207 10.5123 7.69081L10.5073 7.68585Z" fill="white"/>
</svg>
