<svg width="41" height="41" viewBox="0 0 41 41" fill="none" xmlns="http://www.w3.org/2000/svg">
<path fill-rule="evenodd" clip-rule="evenodd" d="M40.5641 0.435973C40.8447 0.716564 41.0016 1.09757 41 1.49438L40.9666 9.82121C40.9666 9.82138 40.9666 9.82104 40.9666 9.82121C40.9537 13.3135 39.3356 16.6065 36.5868 18.7545L20.262 31.5053C20.2615 31.5057 20.261 31.5061 20.2605 31.5065C18.3526 33.0009 15.6364 32.826 13.9244 31.122C13.8979 31.0957 13.8725 31.0684 13.8483 31.0403L9.87504 27.0671C8.1661 25.3581 7.99685 22.6541 9.47879 20.7444M9.47944 20.7436L22.1143 4.44552C24.2618 1.67807 27.5615 0.0462998 31.0728 0.0333655C31.0729 0.0333649 31.0726 0.0333661 31.0728 0.0333655L39.5057 1.16572e-05C39.9025 -0.00155768 40.2835 0.155382 40.5641 0.435973M38.0172 2.98275L31.0846 3.01017C28.4926 3.01961 26.055 4.22323 24.4669 6.2694C24.4668 6.26958 24.4671 6.26921 24.4669 6.2694L11.8308 22.5691C11.2677 23.2944 11.3322 24.3143 11.98 24.9621L16.0269 29.0091C16.0455 29.0277 16.0637 29.0468 16.0812 29.0664C16.7384 29.6676 17.7301 29.7077 18.4255 29.1625L34.7539 16.4088C34.754 16.4088 34.7538 16.4089 34.7539 16.4088C36.7855 14.8212 37.9804 12.3881 37.9898 9.8103L38.0172 2.98275Z" fill="#093140"/>
<path fill-rule="evenodd" clip-rule="evenodd" d="M10.2883 12.9383C8.80289 12.9383 7.38995 13.5841 6.41597 14.7089L6.41596 14.7089L4.70949 16.6796L11.5462 19.9763C12.2867 20.3334 12.5975 21.2231 12.2404 21.9635C11.8834 22.7039 10.9937 23.0147 10.2533 22.6577L1.6647 18.5163C1.24729 18.315 0.947448 17.9308 0.853608 17.477C0.759767 17.0232 0.882641 16.5516 1.18598 16.2013L4.16557 12.7603C4.16557 12.7603 4.16558 12.7603 4.16558 12.7603C5.70424 10.9833 7.93796 9.96143 10.2883 9.96143H18.5766C19.3987 9.96143 20.0651 10.6278 20.0651 11.4498C20.0651 12.2719 19.3987 12.9383 18.5766 12.9383H10.2883Z" fill="#093140"/>
<path fill-rule="evenodd" clip-rule="evenodd" d="M29.5666 20.8574C30.3886 20.8574 31.055 21.5238 31.055 22.3458V30.7177C31.055 33.068 30.0331 35.3017 28.2562 36.8404C28.2562 36.8404 28.2562 36.8404 28.2562 36.8404L24.8152 39.82C24.4649 40.1233 23.9934 40.2462 23.5396 40.1524C23.0859 40.0586 22.7017 39.7589 22.5003 39.3416L18.3589 30.7585C18.0017 30.0182 18.3123 29.1284 19.0526 28.7712C19.793 28.414 20.6827 28.7246 21.04 29.4649L24.3364 36.2968L26.3075 34.59L26.3075 34.59C27.4324 33.616 28.0782 32.203 28.0782 30.7177V22.3458C28.0782 21.5238 28.7445 20.8574 29.5666 20.8574Z" fill="#093140"/>
<path fill-rule="evenodd" clip-rule="evenodd" d="M8.63177 25.7159C8.95615 26.4712 8.60681 27.3465 7.8515 27.6709L6.0764 28.4332C4.19602 29.2379 2.97681 31.0891 2.97681 33.1352V38.023H7.91455C9.94298 38.023 11.7775 36.8257 12.5957 34.9741L13.335 33.3008C13.6673 32.5489 14.5461 32.2087 15.298 32.5409C16.0499 32.8732 16.3901 33.752 16.0579 34.5039L15.3185 36.1772C14.0243 39.1062 11.1226 40.9998 7.91455 40.9998H1.48841C0.666383 40.9998 0 40.3334 0 39.5114V33.1352C0 29.9007 1.92674 26.9715 4.90432 25.6968C4.90465 25.6967 4.90497 25.6966 4.90529 25.6964L6.6768 24.9356C7.43212 24.6112 8.30739 24.9606 8.63177 25.7159Z" fill="#093140"/>
<path fill-rule="evenodd" clip-rule="evenodd" d="M30.3782 9.6365C29.834 9.6365 29.3928 10.0776 29.3928 10.6218C29.3928 11.166 29.834 11.6072 30.3782 11.6072C30.9223 11.6072 31.3635 11.166 31.3635 10.6218C31.3635 10.0776 30.9223 9.6365 30.3782 9.6365ZM26.416 10.6218C26.416 8.43359 28.1899 6.65967 30.3782 6.65967C32.5664 6.65967 34.3403 8.43359 34.3403 10.6218C34.3403 12.8101 32.5664 14.584 30.3782 14.584C28.1899 14.584 26.416 12.8101 26.416 10.6218Z" fill="#093140"/>
</svg>
