<svg width="33" height="40" viewBox="0 0 33 40" fill="none" xmlns="http://www.w3.org/2000/svg">
<path fill-rule="evenodd" clip-rule="evenodd" d="M9.34807 26.0484C9.81719 26.7807 9.61943 27.765 8.90638 28.2468L5.77923 30.3598C5.24832 30.7254 4.86868 31.2808 4.71423 31.918L3.52337 36.8254H9.78788C10.6414 36.8254 11.3333 37.5361 11.3333 38.4127C11.3333 39.2893 10.6414 40 9.78788 40H1.54547C1.06976 40 0.620566 39.775 0.327677 39.39C0.0347877 39.005 -0.0691544 38.5029 0.0458864 38.0288L1.71489 31.151C2.05559 29.7459 2.89412 28.5214 4.06655 27.7172L4.07543 27.7111L7.20757 25.5947C7.92062 25.1129 8.87896 25.316 9.34807 26.0484Z" fill="#093140"/>
<path fill-rule="evenodd" clip-rule="evenodd" d="M23.3185 26.0473C23.7876 25.316 24.746 25.1132 25.459 25.5944L28.6001 27.7137C29.7726 28.5168 30.6111 29.7394 30.9517 31.1426L32.621 38.0328C32.7356 38.5061 32.6315 39.0071 32.3386 39.3913C32.0457 39.7755 31.5966 40 31.1211 40H22.8787C22.0252 40 21.3333 39.2904 21.3333 38.415C21.3333 37.5396 22.0252 36.83 22.8787 36.83H29.1447L27.9524 31.9085C27.7978 31.2725 27.4181 30.7175 26.8874 30.3526L23.7602 28.2426C23.0472 27.7615 22.8494 26.7786 23.3185 26.0473Z" fill="#093140"/>
<path fill-rule="evenodd" clip-rule="evenodd" d="M15.9999 3.14205C15.9308 3.14205 15.8624 3.15574 15.7987 3.18233C15.7349 3.20891 15.677 3.24787 15.6284 3.29695L15.6239 3.30153L14.1382 4.78836C11.9897 6.94032 10.3773 9.56877 9.43219 12.4602C8.48707 15.3517 8.23557 18.4254 8.69807 21.4323L11.0678 36.8579H20.932L23.3017 21.4326C23.7642 18.4257 23.5127 15.3517 22.5676 12.4602C21.6225 9.56877 20.0105 6.94071 17.862 4.78876C17.8618 4.78862 17.8621 4.78889 17.862 4.78876L16.3714 3.29696C16.3228 3.24788 16.2649 3.20891 16.2011 3.18233C16.1374 3.15574 16.069 3.14205 15.9999 3.14205ZM14.5913 0.28192C15.0376 0.0958157 15.5164 0 15.9999 0C16.4834 0 16.9622 0.0958155 17.4085 0.28192C17.8536 0.46753 18.2578 0.739287 18.5977 1.08158C18.5986 1.08249 18.5995 1.0834 18.6004 1.08432L20.0819 2.56699C22.5791 5.068 24.4531 8.12278 25.5515 11.4833C26.6499 14.8437 26.9421 18.4158 26.4046 21.9104L23.8303 38.6677C23.7126 39.4342 23.0537 40 22.2788 40H9.72097C8.94614 40 8.28722 39.4342 8.16947 38.6677L5.59516 21.9104C5.59514 21.9103 5.59517 21.9105 5.59516 21.9104C5.05772 18.4159 5.34997 14.8436 6.44833 11.4833C7.54671 8.12278 9.42034 5.0684 11.9175 2.56738L13.4019 1.08174C13.7419 0.739372 14.1461 0.46756 14.5913 0.28192ZM15.9999 13.8162C16.8668 13.8162 17.5696 14.5196 17.5696 15.3873V21.6714C17.5696 22.539 16.8668 23.2424 15.9999 23.2424C15.133 23.2424 14.4302 22.539 14.4302 21.6714V15.3873C14.4302 14.5196 15.133 13.8162 15.9999 13.8162Z" fill="#093140"/>
</svg>
