<svg width="48" height="48" viewBox="0 0 48 48" fill="none" xmlns="http://www.w3.org/2000/svg">
<path d="M30 12H40C40.5304 12 41.0391 12.2107 41.4142 12.5858C41.7893 12.9609 42 13.4696 42 14V20C42 20.5304 41.7893 21.0391 41.4142 21.4142C41.0391 21.7893 40.5304 22 40 22H32L24 26V22C23.4696 22 22.9609 21.7893 22.5858 21.4142C22.2107 21.0391 22 20.5304 22 20V16" stroke="black" stroke-width="3" stroke-linecap="round" stroke-linejoin="round"/>
<path d="M12 26C11.2089 26 10.4355 26.2346 9.77772 26.6741C9.11992 27.1136 8.60723 27.7384 8.30448 28.4693C8.00173 29.2002 7.92252 30.0044 8.07686 30.7804C8.2312 31.5563 8.61216 32.269 9.17157 32.8284C9.73098 33.3878 10.4437 33.7688 11.2196 33.9231C11.9956 34.0775 12.7998 33.9983 13.5307 33.6955C14.2616 33.3928 14.8864 32.8801 15.3259 32.2223C15.7654 31.5645 16 30.7911 16 30C16 28.9391 15.5786 27.9217 14.8284 27.1716C14.0783 26.4214 13.0609 26 12 26ZM18 40C18 38.4087 17.3679 36.8826 16.2426 35.7574C15.1174 34.6321 13.5913 34 12 34C10.4087 34 8.88258 34.6321 7.75736 35.7574C6.63214 36.8826 6 38.4087 6 40V42H18V40ZM30 14V8C30 7.46957 29.7893 6.96086 29.4142 6.58579C29.0391 6.21071 28.5304 6 28 6H8C7.46957 6 6.96086 6.21071 6.58579 6.58579C6.21071 6.96086 6 7.46957 6 8V14C6 14.5304 6.21071 15.0391 6.58579 15.4142C6.96086 15.7893 7.46957 16 8 16H28C28.5304 16 29.0391 15.7893 29.4142 15.4142C29.7893 15.0391 30 14.5304 30 14Z" stroke="black" stroke-width="3" stroke-linecap="round" stroke-linejoin="round"/>
</svg>
