<svg width="29" height="43" viewBox="0 0 29 43" fill="none" xmlns="http://www.w3.org/2000/svg">
<path d="M15.3727 43H13.6357C10.9063 43 8.6731 40.7709 8.6731 38.0243V36.2828C8.6731 35.4568 9.33809 34.79 10.1619 34.79C10.9857 34.79 11.6507 35.4568 11.6507 36.2828V38.0243C11.6507 39.1189 12.544 40.0145 13.6357 40.0145H15.3727C16.4644 40.0145 17.3577 39.1189 17.3577 38.0243V36.2828C17.3577 35.4568 18.0227 34.79 18.8465 34.79C19.6703 34.79 20.3353 35.4568 20.3353 36.2828V38.0243C20.3353 40.7609 18.112 43 15.3727 43V43Z" fill="#093140"/>
<path d="M20.5734 32.5611H8.42483C7.60103 32.5611 6.93604 31.8944 6.93604 31.0684C6.93604 30.2424 7.60103 29.5757 8.42483 29.5757H20.5734C21.3972 29.5757 22.0622 30.2424 22.0622 31.0684C22.0622 31.8944 21.3972 32.5611 20.5734 32.5611Z" fill="#093140"/>
<path d="M20.5734 37.7755H8.42491C7.60111 37.7755 6.93611 37.1088 6.93611 36.2828V31.1976C6.93611 28.8292 5.98329 26.5304 4.33569 24.8984C1.0008 21.6144 -0.517767 17.0467 0.157152 12.3695C1.09013 5.97075 6.42 0.805949 12.8516 0.0894458C16.9805 -0.36832 21.0995 0.945269 24.1664 3.70182C27.2333 6.45837 29 10.4091 29 14.5389C29 18.6688 27.4318 22.2214 24.5733 24.9879C22.9754 26.5404 22.0622 28.7993 22.0622 31.2076V36.2828C22.0622 37.1088 21.3972 37.7755 20.5734 37.7755ZM9.9137 34.7901H19.0847V31.2076C19.0847 28.0032 20.3352 24.9481 22.5089 22.8484C24.7718 20.6491 26.0224 17.7035 26.0224 14.5489C26.0224 11.3943 24.623 8.13021 22.1813 5.94089C19.7099 3.72172 16.514 2.69672 13.1791 3.07488C8.07752 3.62221 3.83943 7.7222 3.10496 12.7974C2.56899 16.5292 3.76995 20.1615 6.42 22.7688C8.64326 24.9581 9.9137 28.0331 9.9137 31.1976V34.7901Z" fill="#093140"/>
</svg>
