<svg width="40" height="40" viewBox="0 0 40 40" fill="none" xmlns="http://www.w3.org/2000/svg">
<path fill-rule="evenodd" clip-rule="evenodd" d="M7.69231 3.07692C7.5563 3.07692 7.42586 3.13095 7.32969 3.22712C7.23352 3.3233 7.17949 3.45374 7.17949 3.58974V26.6667H28.2051C29.0548 26.6667 29.7436 27.3555 29.7436 28.2051V33.3333C29.7436 34.2854 30.1218 35.1985 30.795 35.8717C31.4682 36.5449 32.3813 36.9231 33.3333 36.9231C34.2854 36.9231 35.1985 36.5449 35.8717 35.8717C36.5449 35.1985 36.9231 34.2854 36.9231 33.3333V3.58974C36.9231 3.45373 36.8691 3.3233 36.7729 3.22712C36.6767 3.13095 36.5463 3.07692 36.4103 3.07692H7.69231ZM27.7156 36.9231C27.036 35.8594 26.6667 34.6154 26.6667 33.3333V29.7436H3.07692V33.3333C3.07692 34.2854 3.45513 35.1985 4.12834 35.8717C4.80154 36.5449 5.71461 36.9231 6.66667 36.9231H27.7156ZM4.10256 26.6667H1.53846C0.688793 26.6667 0 27.3555 0 28.2051V33.3333C0 35.1014 0.702379 36.7971 1.95262 38.0474C3.20286 39.2976 4.89856 40 6.66667 40H33.3333C35.1014 40 36.7971 39.2976 38.0474 38.0474C39.2976 36.7971 40 35.1014 40 33.3333V3.58974C40 2.63769 39.6218 1.72462 38.9486 1.05141C38.2754 0.378203 37.3623 0 36.4103 0H7.69231C6.74025 0 5.82718 0.378204 5.15398 1.05141C4.48077 1.72462 4.10256 2.63768 4.10256 3.58974V26.6667Z" fill="#093140"/>
<path fill-rule="evenodd" clip-rule="evenodd" d="M29.2929 10.7073C29.8937 11.3081 29.8937 12.2822 29.2929 12.883L21.0878 21.0882C20.487 21.689 19.5129 21.689 18.9121 21.0882L14.8095 16.9856C14.2087 16.3848 14.2087 15.4107 14.8095 14.8099C15.4103 14.2091 16.3844 14.2091 16.9852 14.8099L19.9999 17.8246L27.1172 10.7073C27.718 10.1065 28.6921 10.1065 29.2929 10.7073Z" fill="#093140"/>
</svg>
