<svg width="48" height="48" viewBox="0 0 48 48" fill="none" xmlns="http://www.w3.org/2000/svg">
<path d="M42 38.0004H6V10.0004H42V38.0004ZM42 10.0004H34C34 12.1221 34.8429 14.1569 36.3431 15.6572C37.8434 17.1575 39.8783 18.0004 42 18.0004V10.0004ZM6 18.0004C8.12173 18.0004 10.1566 17.1575 11.6569 15.6572C13.1571 14.1569 14 12.1221 14 10.0004H6V18.0004ZM42 30.0004C39.8783 30.0004 37.8434 30.8432 36.3431 32.3435C34.8429 33.8438 34 35.8786 34 38.0004H42V30.0004ZM6 38.0004H14C14 35.8786 13.1571 33.8438 11.6569 32.3435C10.1566 30.8432 8.12173 30.0004 6 30.0004V30.0004V38.0004ZM24 20.0004C23.2089 20.0004 22.4355 20.235 21.7777 20.6745C21.1199 21.114 20.6072 21.7387 20.3045 22.4696C20.0017 23.2005 19.9225 24.0048 20.0769 24.7807C20.2312 25.5567 20.6122 26.2694 21.1716 26.8288C21.731 27.3882 22.4437 27.7692 23.2196 27.9235C23.9956 28.0778 24.7998 27.9986 25.5307 27.6959C26.2616 27.3931 26.8864 26.8804 27.3259 26.2226C27.7654 25.5649 28 24.7915 28 24.0004C28 22.9395 27.5786 21.9221 26.8284 21.1719C26.0783 20.4218 25.0609 20.0004 24 20.0004Z" stroke="black" stroke-width="3" stroke-linecap="round" stroke-linejoin="round"/>
</svg>
