<svg width="41" height="40" viewBox="0 0 41 40" fill="none" xmlns="http://www.w3.org/2000/svg">
<path fill-rule="evenodd" clip-rule="evenodd" d="M3.65766 11.0971C3.51908 11.0971 3.38617 11.1515 3.28818 11.2483C3.19019 11.3451 3.13514 11.4764 3.13514 11.6133V36.3875C3.13514 36.5244 3.19019 36.6556 3.28818 36.7524C3.38617 36.8492 3.51907 36.9036 3.65766 36.9036H35.009C35.1476 36.9036 35.2805 36.8492 35.3785 36.7524C35.4765 36.6556 35.5315 36.5244 35.5315 36.3875V28.1294C35.5315 27.2742 36.2334 26.581 37.0991 26.581C37.9648 26.581 38.6667 27.2742 38.6667 28.1294V36.3875C38.6667 37.3457 38.2813 38.2646 37.5954 38.9422C36.9094 39.6197 35.9791 40.0004 35.009 40.0004H3.65766C2.68759 40.0004 1.75725 39.6197 1.0713 38.9422C0.385358 38.2646 0 37.3457 0 36.3875V11.6133C0 10.6551 0.385359 9.73611 1.0713 9.05856C1.75725 8.38101 2.68759 8.00037 3.65766 8.00037H35.009C35.9791 8.00037 36.9094 8.38101 37.5954 9.05856C38.2813 9.73611 38.6667 10.6551 38.6667 11.6133V19.8713C38.6667 20.7265 37.9648 21.4197 37.0991 21.4197C36.2334 21.4197 35.5315 20.7265 35.5315 19.8713V11.6133C35.5315 11.4764 35.4765 11.3451 35.3785 11.2483C35.2805 11.1515 35.1476 11.0971 35.009 11.0971H3.65766Z" fill="#093140"/>
<path fill-rule="evenodd" clip-rule="evenodd" d="M30.923 21.2724C30.6398 21.2724 30.4102 21.5166 30.4102 21.8179V26.1815C30.4102 26.4828 30.6398 26.727 30.923 26.727H37.0768C37.3601 26.727 37.5897 26.4828 37.5897 26.1815V21.8179C37.5897 21.5166 37.3601 21.2724 37.0768 21.2724H30.923ZM27.3333 21.8179C27.3333 19.7092 28.9404 17.9997 30.923 17.9997H37.0768C39.0594 17.9997 40.6666 19.7092 40.6666 21.8179V26.1815C40.6666 28.2902 39.0594 29.9997 37.0768 29.9997H30.923C28.9404 29.9997 27.3333 28.2902 27.3333 26.1815V21.8179Z" fill="#093140"/>
<path fill-rule="evenodd" clip-rule="evenodd" d="M25.993 3.10786C25.8639 3.06393 25.7222 3.06942 25.5973 3.12321L25.5932 3.12497L8.24966 10.5338C7.44206 10.8788 6.49667 10.5287 6.13807 9.75171C5.77947 8.97476 6.14346 8.06525 6.95105 7.72026L24.2905 0.31316C24.2912 0.312834 24.292 0.312508 24.2927 0.312183C25.1669 -0.0634217 26.1578 -0.101559 27.0604 0.205717C27.9638 0.513259 28.7097 1.14326 29.1437 1.96527L29.1491 1.97561L29.1491 1.97563L32.4983 8.44043C32.8925 9.20126 32.5709 10.1254 31.7801 10.5047C30.9892 10.8839 30.0286 10.5745 29.6344 9.81366L26.2888 3.35579C26.2265 3.24004 26.1208 3.15137 25.993 3.10786Z" fill="#093140"/>
</svg>
