<svg width="40" height="42" viewBox="0 0 40 42" fill="none" xmlns="http://www.w3.org/2000/svg">
<path fill-rule="evenodd" clip-rule="evenodd" d="M20.0027 14.4194C20.8239 14.4194 21.4896 15.0856 21.4896 15.9073V20.1526C21.4896 20.9743 20.8239 21.6405 20.0027 21.6405C19.1816 21.6405 18.5159 20.9743 18.5159 20.1526V15.9073C18.5159 15.0856 19.1816 14.4194 20.0027 14.4194Z" fill="#093140"/>
<path fill-rule="evenodd" clip-rule="evenodd" d="M20.0027 30.5391C20.8239 30.5391 21.4896 31.2052 21.4896 32.027V36.2667C21.4896 37.0885 20.8239 37.7546 20.0027 37.7546C19.1816 37.7546 18.5159 37.0885 18.5159 36.2667V32.027C18.5159 31.2052 19.1816 30.5391 20.0027 30.5391Z" fill="#093140"/>
<path fill-rule="evenodd" clip-rule="evenodd" d="M18.7404 21.6462C17.9449 21.6462 17.2836 22.2971 17.2836 23.1256C17.2836 23.954 17.9449 24.6049 18.7404 24.6049H21.265C23.7233 24.6049 25.6955 26.6087 25.6955 29.0601C25.6955 31.5115 23.7233 33.5153 21.265 33.5153H14.9534C14.1322 33.5153 13.4666 32.8491 13.4666 32.0274C13.4666 31.2056 14.1322 30.5395 14.9534 30.5395H21.265C22.0605 30.5395 22.7218 29.8886 22.7218 29.0601C22.7218 28.2316 22.0605 27.5808 21.265 27.5808H18.7404C16.2821 27.5808 14.3099 25.577 14.3099 23.1256C14.3099 20.6742 16.2821 18.6704 18.7404 18.6704H25.052C25.8732 18.6704 26.5389 19.3366 26.5389 20.1583C26.5389 20.9801 25.8732 21.6462 25.052 21.6462H18.7404Z" fill="#093140"/>
<path fill-rule="evenodd" clip-rule="evenodd" d="M16.8306 13.1555C12.931 13.1555 9.50749 15.8035 8.50763 19.6195L3.41469 39.0241H36.5799L31.4871 19.62C30.4872 15.8041 27.0636 13.1555 23.164 13.1555H16.8306ZM39.9132 40.0098C39.9694 40.1667 40 40.3358 40 40.512C40 41.3338 39.3343 41.9999 38.5131 41.9999H1.48688C1.02592 41.9999 0.591035 41.786 0.309516 41.4207C0.027998 41.0555 -0.0683087 40.5802 0.0487874 40.1341L5.63114 18.8647C5.63119 18.8645 5.63108 18.8649 5.63114 18.8647C6.97112 13.7517 11.5677 10.1797 16.8306 10.1797H23.164C28.4268 10.1797 33.0233 13.7511 34.3633 18.8641C34.3633 18.8643 34.3632 18.8639 34.3633 18.8641L39.9132 40.0098Z" fill="#093140"/>
<path fill-rule="evenodd" clip-rule="evenodd" d="M8.65864 0.675194C8.93311 0.253984 9.40161 0 9.90411 0H30.1012C30.6039 0 31.0725 0.254142 31.3469 0.675567C31.6214 1.09699 31.6645 1.62864 31.4615 2.0888L28.0935 9.72361C27.7618 10.4754 26.884 10.8158 26.1328 10.4839C25.3815 10.152 25.0414 9.27359 25.373 8.52183L27.8196 2.97582H12.1843L14.6273 8.52264C14.9584 9.2746 14.6178 10.1528 13.8663 10.4843C13.1149 10.8157 12.2373 10.4748 11.9061 9.72279L8.54352 2.08799C8.34087 1.62785 8.38417 1.09641 8.65864 0.675194Z" fill="#093140"/>
</svg>
