<svg width="48" height="49" viewBox="0 0 48 49" fill="none" xmlns="http://www.w3.org/2000/svg">
<path d="M36 28.6797V8.67969C36 8.14925 35.7893 7.64055 35.4142 7.26547C35.0391 6.8904 34.5304 6.67969 34 6.67969H10C9.46957 6.67969 8.96086 6.8904 8.58579 7.26547C8.21071 7.64055 8 8.14925 8 8.67969V40.6797C8 41.2101 8.21071 41.7188 8.58579 42.0939C8.96086 42.469 9.46957 42.6797 10 42.6797H22" stroke="black" stroke-width="3" stroke-linecap="round" stroke-linejoin="round"/>
<path d="M16 34.6797H22M16 26.6797H28M28 38.6797L32 42.6797L40 34.6797M16 6.67969H28V12.6797C28 13.2101 27.7893 13.7188 27.4142 14.0939C27.0391 14.469 26.5304 14.6797 26 14.6797H18C17.4696 14.6797 16.9609 14.469 16.5858 14.0939C16.2107 13.7188 16 13.2101 16 12.6797V6.67969Z" stroke="black" stroke-width="3" stroke-linecap="round" stroke-linejoin="round"/>
</svg>
