<svg width="29" height="64" viewBox="0 0 29 64" fill="none" xmlns="http://www.w3.org/2000/svg">
<g clip-path="url(#clip0_4_560)">
<path d="M28.995 23.1849C28.995 26.0539 29 28.9229 28.995 31.7968C28.9703 39.1849 23.5647 45.2945 16.2366 46.2261C8.34376 47.227 0.956262 41.3998 0.109004 33.4865C0.0445925 32.8969 0.00990945 32.3022 0.00990945 31.7126C0 25.9498 0 20.187 0 14.4292C0.0148642 7.00153 5.84162 0.634232 13.1498 0.0495311C20.7801 -0.559945 27.5185 4.57353 28.7671 11.9764C28.9158 12.8485 28.9802 13.7454 28.9901 14.6324C29.0198 17.4816 29 20.3307 29 23.1849H28.995ZM2.02648 23.1403C2.02648 25.9696 2.02153 28.799 2.03144 31.6333C2.03144 32.2626 2.07107 32.9018 2.15035 33.5262C2.89851 39.6457 8.47753 44.4521 14.6511 44.3084C21.6076 44.1499 26.9735 38.6646 26.9834 31.6977C26.9933 26.0192 26.9884 20.3357 26.9834 14.6571C26.9834 13.9486 26.9438 13.2301 26.8348 12.5265C25.8141 6.06006 20.0518 1.58561 13.3877 2.0613C7.15958 2.5023 2.11071 7.93309 2.03144 14.2905C1.99675 17.2388 2.02648 20.187 2.02648 23.1353V23.1403Z" fill="white"/>
<path d="M12.4959 13.1659C12.4959 12.3929 12.486 11.6249 12.4959 10.8519C12.5158 9.65274 13.3481 8.7955 14.4877 8.79055C15.6273 8.78559 16.4894 9.63787 16.4993 10.8271C16.5142 12.3879 16.5192 13.9488 16.4993 15.5146C16.4845 16.7038 15.6125 17.5611 14.4778 17.5512C13.3481 17.5412 12.5108 16.6741 12.491 15.4799C12.4811 14.7069 12.491 13.9389 12.491 13.1659H12.4959Z" fill="white"/>
</g>
<defs>
<clipPath id="clip0_4_560">
<rect width="29" height="64" fill="white"/>
</clipPath>
</defs>
</svg>
