<svg width="42" height="40" viewBox="0 0 42 40" fill="none" xmlns="http://www.w3.org/2000/svg">
<path d="M21.0917 18.1828C21.56 17.5618 21.7892 17.1663 22.1036 16.8526C26.9765 11.973 31.8592 7.09989 36.7419 2.23335C38.0616 0.916212 39.5385 0.78221 40.5996 1.86403C41.6606 2.94584 41.546 4.33815 40.2524 5.63241C34.944 10.9402 29.6323 16.2512 24.3075 21.5426C22.264 23.5755 19.8505 23.5755 17.8202 21.5557C12.4397 16.2022 7.06905 10.8389 1.70168 5.47226C0.450709 4.22049 0.349191 2.74974 1.40367 1.70715C2.48762 0.638404 3.86958 0.746258 5.17622 2.04379C10.1211 6.96589 15.0595 11.8945 19.9946 16.8297C20.309 17.1467 20.5612 17.5226 21.0917 18.1828Z" fill="white"/>
<path d="M21.0295 33.8218C21.4454 33.4263 21.7696 33.1289 22.0807 32.8151C26.9601 27.9453 31.8428 23.0788 36.7124 18.1991C37.5442 17.3657 38.4317 16.8199 39.6532 17.2807C41.1367 17.8396 41.7229 19.598 40.8354 20.9086C40.6094 21.242 40.3016 21.523 40.0134 21.8106C34.8753 26.9419 29.7371 32.0732 24.5957 37.2012C22.1658 39.623 19.9226 39.623 17.5058 37.2143C12.3644 32.0863 7.22628 26.955 2.08814 21.8237C1.77049 21.5067 1.43974 21.1962 1.18103 20.8334C0.463852 19.8268 0.598117 18.5587 1.46594 17.7122C2.26171 16.9343 3.5749 16.7905 4.50821 17.4311C4.90773 17.7056 5.24831 18.0684 5.59216 18.4149C10.7041 23.5134 15.8095 28.6153 21.0262 33.825L21.0295 33.8218Z" fill="white"/>
</svg>
