<svg width="48" height="48" viewBox="0 0 48 48" fill="none" xmlns="http://www.w3.org/2000/svg">
<path d="M23.9999 6V8M38.1399 11.86L36.7199 13.28M9.85986 11.86L11.2799 13.28M33.9999 26C33.9928 23.5145 33.0603 21.1208 31.3843 19.2854C29.7083 17.45 27.4089 16.3046 24.9342 16.0723C22.4596 15.8401 19.9872 16.5378 17.999 18.0293C16.0108 19.5208 14.6493 21.6992 14.1799 24.14C13.9106 25.5387 13.95 26.9793 14.2955 28.3611C14.6409 29.7429 15.2841 31.0326 16.1799 32.14C17.3609 33.5768 18.0045 35.3801 17.9999 37.24V40C17.9999 40.5304 18.2106 41.0391 18.5857 41.4142C18.9607 41.7893 19.4694 42 19.9999 42H27.9999C28.5303 42 29.039 41.7893 29.4141 41.4142C29.7892 41.0391 29.9999 40.5304 29.9999 40V37.24C29.9972 35.4177 30.6262 33.6507 31.7799 32.24C33.2172 30.4782 34.0015 28.2738 33.9999 26V26Z" stroke="black" stroke-width="3" stroke-linecap="round" stroke-linejoin="round"/>
</svg>
