<svg width="14" height="14" viewBox="0 0 14 14" fill="none" xmlns="http://www.w3.org/2000/svg">
<path fill-rule="evenodd" clip-rule="evenodd" d="M1.13332 0.0666504C0.544218 0.0666504 0.0666504 0.544218 0.0666504 1.13332V12.8667C0.0666504 13.4558 0.544218 13.9333 1.13332 13.9333H12.8667C13.4558 13.9333 13.9333 13.4558 13.9333 12.8667V1.13332C13.9333 0.544218 13.4558 0.0666504 12.8667 0.0666504H1.13332ZM2.25332 5.39998H4.27998V11.8H2.25332V5.39998ZM4.41332 3.27198C4.41332 3.90527 3.89994 4.41865 3.26665 4.41865C2.63337 4.41865 2.11998 3.90527 2.11998 3.27198C2.11998 2.63869 2.63337 2.12532 3.26665 2.12532C3.89994 2.12532 4.41332 2.63869 4.41332 3.27198ZM11.8 7.91426C11.8 5.98887 10.5556 5.24034 9.31944 5.24034C8.91467 5.22039 8.51167 5.30525 8.15064 5.48646C7.87649 5.62406 7.58948 5.9389 7.36816 6.48642H7.31123V5.40045H5.39998V11.805H7.43322V8.3986C7.40382 8.04972 7.51547 7.59883 7.74389 7.33051C7.97231 7.06219 8.29907 6.99812 8.54681 6.96557H8.62407C9.27064 6.96557 9.75049 7.36586 9.75049 8.37458V11.805H11.7837L11.8 7.91426Z" fill="#093140"/>
</svg>
